<svg xmlns="http://www.w3.org/2000/svg" version="1.1" xmlns:xlink="http://www.w3.org/1999/xlink" xmlns:svgjs="http://svgjs.dev/svgjs" width="1000" height="1125" viewBox="0 0 1000 1125"><g transform="matrix(1,0,0,1,1.7053025658242404e-13,0)"><svg viewBox="0 0 320 360" data-background-color="#111111" preserveAspectRatio="xMidYMid meet" height="1125" width="1000" xmlns="http://www.w3.org/2000/svg" xmlns:xlink="http://www.w3.org/1999/xlink"><g id="tight-bounds" transform="matrix(1,0,0,1,-5.684341886080802e-14,0)"><svg viewBox="0 0 320 360" height="360" width="320"><g><svg></svg></g><g><svg viewBox="0 0 320 360" height="360" width="320"><g><path xmlns="http://www.w3.org/2000/svg" d="M85.508 32.884c0-1.117 0.558-2.233 1.675-2.233 1.117 0 2.233 0.558 2.234 2.233 0.558 0 1.675 0 2.233-0.558 2.233 0 4.467-0.558 6.141 0 1.675 0.558 2.792 0.558 4.467 1.117 1.675 0.558 2.792 0 3.908-0.559 2.233-0.558 3.908-1.675 6.141-2.233 1.117-0.558 1.675-0.558 2.792-0.558 1.117-0.558 2.233-0.558 3.908-1.117 2.792-0.558 5.583-1.117 7.817-2.233 2.233-1.117 4.467-1.117 6.699-1.675 1.117 0 1.675-0.558 2.792-1.117 0.558 0 0.558-0.558 1.116-1.116 1.117-0.558 1.675-1.117 2.792-0.559 0.558 0.558 1.675 0.558 2.233 0h0.559c3.35 0 6.7-0.558 10.608 0 0.558 0 1.117 0 1.116 0 1.675-1.117 3.908-1.117 6.142-1.116 0.558 0 1.675 0 2.233 0h0.558c2.233 0 4.467 0 6.142 0.558 1.675 0 2.792 0.558 4.466 1.117 1.675 0 2.792 0 4.467 0.558 1.117 0 2.233 0 3.35 0 0.558 0 1.117 0 1.116 0 2.233 0.558 4.467 0.558 6.7 0.558 1.675 0.558 3.35 1.117 5.583 1.117 0.558 0 1.117 0 1.675 0 0.558 0 1.117 0.558 1.675 0.558l0.558 0.559c2.233 0 3.908 1.117 6.142 1.116 0.558 0 1.675 0 2.233 0.559 1.675 1.117 3.908 1.675 6.141 1.675 1.117 0 1.675 0.558 2.234 1.116 1.675 0.558 2.792 1.117 4.466 1.675 1.117 0.558 2.233 0 3.35 0.558 1.675 0.558 3.908 1.117 5.583 2.792 1.117 1.117 2.233 1.117 3.908 2.233 0.558 0 1.117 0.558 1.675 1.117 1.675 1.117 3.35 2.233 5.025 2.791 0.558 0 1.117 0.558 1.675 0.559 1.675 1.117 3.35 2.792 5.583 3.908 1.117 0.558 1.675 1.117 2.792 1.675h0.558c1.675 1.675 3.908 2.792 5.583 4.466 1.675 1.675 2.792 2.792 5.025 3.909 0 0 0 0 0 0.558 0.558 1.117 1.117 1.675 2.233 2.233 1.117 0.558 1.675 1.117 2.234 1.675 1.675 1.117 3.35 2.233 4.466 3.35 0.558 0.558 1.117 1.117 2.233 2.233 0.558 0.558 1.117 1.117 1.675 1.117 2.233 0.558 3.35 2.233 5.025 3.908 1.117 1.117 2.792 2.792 3.908 3.908 0.558 0.558 1.117 1.675 1.675 2.792 1.117 3.35 2.792 6.7 4.467 9.491 0 0 0 0.558 0.558 1.117v0.558c1.117 1.117 1.675 2.792 2.792 3.908 0.558 0.558 0.558 1.117 1.116 1.675 1.117 1.675 1.675 3.908 2.792 5.583 1.675 2.792 2.792 5.583 3.908 8.375v0.558c0.558 1.117 1.117 2.233 1.675 3.908 0 1.117 1.117 2.233 1.675 3.909 0.558 2.792 2.233 5.583 2.791 8.933 0 0.558 0.558 1.117 0.559 2.233 0.558 1.675 1.117 3.35 1.675 5.025 0 0.558 0.558 1.117 1.116 1.675 1.117 1.117 1.117 2.233 1.117 3.35-0.558 2.233 0 4.467 0.558 6.699 0 0.558 0 1.117 0 2.234 0.558 2.233 1.117 5.025 1.117 7.258 0 0.558 0 1.675 0 2.233 0 1.675 0.558 3.35 1.675 5.025 0 0.558 0.558 0.558 0.558 0.558 0.558 0.558 1.117 1.675 1.675 2.233 0.558 0.558 0.558 0.558 1.117 1.117 1.117 1.117 1.675 2.233 1.675 3.908 0 0.558-0.558 1.675-0.559 2.233 0 0.558 0 1.675 0.559 2.234 0.558 0.558 0.558 1.117 0.558 1.675 0 0.558-0.558 1.117-1.117 1.116v0c-0.558 1.675-2.792 2.233-3.35 3.908-0.558 2.233-1.117 4.467-1.674 6.7-0.558 1.675-0.558 2.792-0.559 4.467 0 1.675-0.558 2.792-0.558 4.466-0.558 2.233-1.117 4.467-1.675 6.7 0 1.117-0.558 2.233-0.558 3.35 0.558 0.558 1.117 1.117 1.675 1.116 1.117 1.117 2.233 2.233 3.349 3.35 0.558 0.558 0.558 1.117 0 1.117-0.558 0.558-1.117 0.558-1.674 0.558-0.558-0.558-1.675-1.117-2.234-1.116-0.558-0.558-1.675-1.117-2.791-0.559 0 1.117-0.558 2.233-0.559 2.792-0.558 1.117-1.117 2.792-1.116 3.908-0.558 2.233-1.675 3.908-2.233 6.142-1.117 2.792-2.233 5.025-3.35 7.258-0.558 1.117-1.117 2.233-1.675 3.35v0c0 1.675-1.675 3.35-2.234 5.024-1.117 2.233-2.233 4.467-3.349 7.258-0.558 1.117-1.117 2.233-1.675 2.792-1.117 2.792-2.233 5.025-3.909 7.258-1.117 1.675-2.233 2.792-3.349 3.35-1.117 1.117-2.233 2.233-3.35 3.35-0.558 0.558-1.117 1.117-1.675 1.675-0.558 0.558-0.558 0.558-1.117 1.116-1.117 1.675-2.792 2.792-3.908 4.467-1.117 1.117-1.675 2.233-3.35 3.35-1.117 1.117-2.233 2.792-3.908 3.35-0.558 0.558-1.117 1.675-1.675 2.233-0.558 0.558-1.117 1.675-1.675 2.233 0 1.117 0.558 2.233 0.558 2.792 0 1.675-1.675 2.233-2.791 1.116-1.675-1.117-1.675-1.117-3.35 0-1.675 1.117-3.35 2.792-5.583 3.35-0.558 0-0.558 0.558-1.117 0.559-1.117 0.558-1.675 1.675-2.792 2.233-1.117 1.117-2.792 1.675-3.908 2.791-0.558 0.558-1.117 0.558-1.675 1.117-1.675 1.117-3.35 1.675-5.024 3.35-0.558 0.558-1.117 0.558-1.675 1.117 0 0.558 0 0.558 0 1.116 0 1.117-1.117 2.233-2.792 1.675-1.675-0.558-2.792 0-4.466 0-1.675 0.558-3.35 1.675-5.025 2.233-0.558 0-1.117 0.558-1.675 1.117-1.675 1.117-3.35 1.675-5.025 2.233-1.117 0-2.233 1.117-3.35 1.117-0.558 0-1.117 0.558-1.675 0.558h-0.558c-2.233 1.675-4.467 2.792-6.7 4.467-0.558 0-0.558 0.558-1.117 1.116-0.558 1.117-1.117 1.675-2.233 1.675-2.792 0-3.908 2.233-3.35 4.467 0 0.558 0.558 1.117 0.559 1.675 0.558 1.117 0 2.233-0.559 2.791-0.558 0.558-2.233 0.558-2.791-0.558-1.117-1.117-1.675-2.233-2.234-3.908-0.558-1.117-1.675-2.233-2.791-2.792-1.117-0.558-2.233-0.558-3.35 0-0.558 0-0.558 0.558-1.117 0.558-1.117 1.117-2.792 1.675-4.466 1.117-0.558 0-1.675 0-1.675 0.558-0.558 0.558-0.558 1.675 0 2.234 1.117 1.117 0.558 2.233 0.558 3.908 0 2.233-1.675 3.35-3.908 2.233-0.558-0.558-1.117-0.558-1.675-1.117-0.558 0-0.558-0.558-0.558-1.116-0.558-0.558-0.558-1.675-1.117-2.792-1.117 0.558-2.233 0.558-3.35 1.117-0.558 0-1.117 0.558-1.675 0.558-1.675 0-2.233 0-2.791-1.675-0.558-1.675-1.675-1.675-2.792-2.233-2.233-0.558-5.025-0.558-7.258-1.675h-0.558c-2.233-1.675-4.467-1.675-7.258-1.675-1.675 0-3.35 0.558-5.025 0.558-1.675 0-2.792 0.558-3.908 1.675-0.558 0.558-1.117 1.117-1.675 1.117-0.558-0.558-0.558-1.117-1.117-1.675v-0.558c0-0.558-0.558-1.117-1.116-0.559-1.117 0.558-2.233-0.558-3.35-1.116-0.558-0.558-1.675-1.675-1.675-2.792-0.558-0.558-1.117-1.117-1.675-1.116-1.117 0-2.792-0.558-3.908-0.559-0.558 0-1.117 0-1.117-0.558-0.558-0.558-1.117-0.558-2.233-0.558-0.558 0-0.558-0.558-1.117-0.559 1.117 1.117 1.675 2.233 2.233 3.35 0 0.558 0.558 0.558 0.559 1.117 0.558 1.117 0 1.675-1.675 1.675-1.117 0-1.117 0-1.675 0.558 0 1.117 0 1.675 0 2.792 0 0.558 0 1.117-1.117 1.675 0 0-0.558 0-0.558 0.558-0.558 0.558-0.558 1.117 0 1.675 1.675 1.117 2.792 1.675 4.466 2.233 1.675 0 1.675 1.117 2.234 2.233 0.558 1.117 0 1.675-0.559 2.792-1.117 1.117-2.233 2.233-3.35 3.35-1.675 0.558-2.792 2.233-4.466 2.233-1.117 0-2.233-0.558-2.792-1.675-0.558-2.792-0.558-5.025 0.559-7.816 0-0.558 0.558-1.117 0-1.675-5.025 0-5.025-1.117-5.025-1.675 0-1.117 0.558-1.675 0.558-2.792 0.558-1.117 0-1.675-1.675-2.233-0.558 0-1.117 0-1.675 0-0.558 0-0.558-0.558-1.675-0.558 1.117-0.558 1.675-0.558 2.792-1.117-0.558-2.233-1.117-3.908-2.792-5.025-0.558-0.558-1.117-1.117-1.116-2.233 0-1.675-1.117-2.792-1.675-3.908-1.117-1.675-3.35-2.233-5.025-2.233-1.675-0.558-2.792-0.558-4.467-1.117-1.675-0.558-3.35-2.233-5.024-2.792-0.558-0.558-1.117-1.117-2.234-1.674-2.233-1.117-3.908-2.792-5.583-4.467-1.117-0.558-1.675-1.675-2.791-2.233-1.117-1.117-1.675-2.233-2.792-2.792-1.117-1.117-2.233-2.233-3.908-3.35-1.675-1.117-2.792-2.792-4.467-4.466-1.117-1.675-2.792-2.792-4.466-3.908-0.558 0-1.117 0-1.675 0-0.558 0-1.117 0.558-1.675 0.558-1.675 0.558-2.792 1.675-4.467 2.233 0.558-0.558 0.558-0.558 0-1.675-0.558-0.558-1.117-1.117-1.674-1.116-1.117 0-2.233 0-3.35 0-2.233 0-4.467 0.558-6.7 0.558-1.675 0-3.908 0.558-5.583 1.117 0.558 1.117 0.558 1.675 1.116 2.791-1.117 0.558-2.233 0.558-3.35 0.558-0.558 0-1.675 0.558-2.233 1.117-0.558 0-0.558 0.558-1.116 0-1.117-0.558-2.233 0-3.35 0.558h-0.559c0 0 0-0.558 0.559-0.558 0.558-0.558 1.117-1.117 1.675-1.675 0.558-0.558 1.117-0.558 2.233-1.117-0.558-0.558-0.558-1.117-0.558-1.116-0.558-0.558-1.117-0.558-1.675 0-0.558 0.558-1.117 1.117-1.675 1.675-0.558 0.558-1.117 0.558-1.675 0-0.558-0.558-0.558-1.117 0-1.675 0-0.558 0.558-1.117 1.116-1.675 0.558-0.558 0.558-1.117 1.117-1.675-1.117-1.117-1.675-2.233-2.792-2.792-1.675-1.117-3.35-2.792-4.466-4.466-1.117-2.233-2.792-3.908-5.025-5.025-0.558-0.558-1.117-1.117-1.675-1.675-0.558-0.558-0.558-0.558-1.116-1.117-1.675 0.558-2.792 1.675-4.467 2.234-0.558 0-0.558 0.558-1.117 1.116-0.558 1.117-1.675 1.117-2.791 1.117-0.558 0-1.117-0.558-0.558-1.117 0.558-1.117 1.117-2.233 2.791-1.675 0 0 0.558 0 0.558-0.558 1.117-1.117 2.233-2.792 3.909-3.908-0.558-1.675-1.675-2.792-2.234-3.908-0.558-0.558-0.558-1.117-0.558-2.234 0-0.558 0-0.558-0.558-1.116 0 0-0.558 0-1.117 0.558-0.558 0.558-1.675 1.117-2.791 0 0-0.558 0-1.117 0.558-1.675l0.558-0.558c1.675-0.558 1.675-2.233 1.675-3.908v-0.559c-0.558-1.117-0.558-1.675 0.558-2.791 1.675-1.117 3.35-3.35 3.909-5.025 0.558-1.117 1.675-1.675 2.791-2.792 1.117-1.117 2.233-2.233 2.792-3.908h0.558c2.233 0.558 2.792-1.117 3.908-2.791 0-0.558 0-1.117 0.559-1.117 1.117-1.117 1.117-2.233 0.558-3.908 0-0.558-0.558-1.675-0.558-2.233 0-0.558 0-0.558-0.559-1.117-1.675-1.117-1.675-2.233 0-3.35 1.117-0.558 1.117-1.675 1.675-2.233 0.558-1.117 0.558-2.233 0.559-3.908-0.558-1.675-0.558-3.908-1.117-5.583-0.558-2.233-1.117-5.025-1.675-7.259 0-0.558 0-0.558 0-1.116 0-1.675 0-2.792-0.558-4.467-0.558-0.558-0.558-1.675-0.559-2.233-0.558-1.675-1.117-2.792-2.791-3.35-1.675-1.117-3.908-1.675-5.583-2.791-0.558-0.558-1.117 0-1.675 0.558-0.558 1.117-1.675 2.233-2.234 3.35-0.558 0.558-1.117 1.675-1.675 2.791-1.117 1.117-3.35 2.233-5.024 0.559-0.558-1.117-1.117-1.675 0-2.792 1.117-1.675 2.233-3.35 3.908-4.466 0.558-0.558 1.117-1.675 1.675-2.234 0.558-1.117 0.558-2.233 0.558-3.35-0.558-2.233-1.117-4.467-1.117-7.258 0-2.792 0-5.025 0.559-7.816 0.558-1.117 0.558-2.792 1.116-3.908 0-0.558 0.558-1.675 1.117-2.233 1.117-1.117 2.233-2.233 2.792-3.909 0.558-1.675 1.675-3.35 1.675-5.024 0-0.558 0.558-1.117 0.558-1.675 0-0.558 0.558-1.675 0.558-2.234-0.558-1.675 0-2.792 0.558-3.908 0.558-1.117 1.117-2.792 1.675-3.908 1.117-2.233 1.117-5.025 3.35-7.258 0.558-1.117 1.117-2.233 1.675-3.35 0.558-2.233 1.675-3.908 2.792-5.583 0.558-0.558 0.558-0.558 0.558-1.117 0.558-1.675 1.675-3.35 2.792-5.025 1.117-1.675 1.117-3.35 1.675-5.024 0-0.558 0-1.117 0.558-1.675 1.675-1.675 1.117-3.908 0.558-6.142-1.117-2.792-1.675-5.583-1.116-8.374 0-0.558 0-1.117 0.558-1.117 0.558-1.117 0.558-1.675 1.117-2.792v-0.558c1.117-1.117 2.233-2.792 3.908-3.35 2.233-1.117 4.467-1.675 7.258-2.233 2.233 0 4.467-1.117 6.141-3.35 0-0.558 0.558-0.558 1.117-1.117l0.558-0.558c0.558-1.117 1.117-1.675 1.675-2.233 1.117-1.117 2.233-2.792 3.35-3.908 1.117-1.117 2.233-2.792 3.908-4.467l0.559-0.558c1.117-1.117 2.233-2.233 3.349-2.792 1.117-1.117 2.233-2.233 3.35-3.35 1.117-1.117 1.675-2.233 2.792-3.35 1.117-0.558 2.233-1.675 3.35-2.791 1.117-1.117 2.233-2.233 2.791-2.792 1.117-1.117 2.792-2.233 3.909-2.791 1.117-0.558 2.233-1.117 2.791-2.792 0.558-1.675 1.117-2.792 1.675-4.466 0-1.117 0.558-2.233 1.117-3.35 0.558 0 1.117 0 2.233-0.558-0.558-0.558-1.117-0.558-1.117-1.117 0-0.558 0.558-1.117 0.559-1.117 0-0.558 0.558-1.117 0.558-1.675 0 0 0.558 0 0.558-0.558 0 0 0.558 0 0.559-0.558-1.117 0.558-1.675 0-2.234-0.559 0.558 0.558 1.117 0.558 2.234 1.117 0 0 0.558 0 0.558-0.558 0-0.558 0-1.117 0-1.117 0 0-0.558 0-1.117 0-0.558 0-1.117 0.558-1.675 0.558zM182.097 295.292c0-0.558-0.558-0.558-0.559-1.117-0.558-1.117 0-1.675 0.559-2.233 0.558-0.558 1.117-0.558 2.233-0.558 1.117 0.558 1.675 1.117 1.675 2.233 0 0.558 0 1.675 0 2.233 0.558 2.233 0.558 2.233 2.791 2.233 1.117 0 2.233 0 3.35 0 2.233-0.558 4.467-1.675 6.7-2.233 2.233-0.558 4.467-1.117 6.7-1.675 0.558 0 1.117 0 2.233 0 2.233 0.558 3.908 0 5.583-1.117 0.558-0.558 1.675-0.558 2.233-1.116 1.117-0.558 2.233-0.558 3.35-1.117 2.792-1.675 5.583-2.792 7.817-4.466 1.675-1.117 3.35-2.233 5.024-3.35 1.675-1.117 3.35-2.233 5.025-3.35 1.117-0.558 2.792-1.675 3.908-2.792 2.233-1.675 3.908-3.35 6.142-4.466 1.117-0.558 1.675-1.117 2.233-1.675 1.117-0.558 1.675-1.675 2.792-2.233 0.558-0.558 1.117-1.117 2.233-1.675 0.558-0.558 0.558-0.558 0.558-1.117 1.675-1.117 3.35-3.35 4.467-5.025 1.117-1.117 2.233-2.233 3.35-3.908 1.675-1.675 2.792-3.908 4.466-6.141 1.117-1.117 2.233-2.792 2.792-3.909 1.117-2.233 2.233-4.467 3.908-6.141v-0.558c1.117-2.233 2.233-4.467 3.35-6.7 1.675-2.792 2.792-6.141 4.466-8.933 0.558-1.117 1.117-2.233 1.117-3.35 1.117-2.233 1.675-4.467 2.233-6.7 0-0.558 0-0.558 0.559-1.116 1.675-3.35 2.792-6.7 3.349-10.608 0.558-2.233 1.117-4.467 1.675-6.7 1.117-3.35 1.117-6.141 1.675-9.491 0.558-2.233 0.558-5.025 0.559-7.258 0.558-3.35 0.558-7.258 0-10.608 0-2.792-0.558-6.141-0.559-8.933 0-2.792-0.558-5.025-1.116-7.817-0.558-2.792-1.117-5.025-1.675-7.816-1.117-2.233-1.675-4.467-2.234-7.258-0.558-2.233-1.675-3.908-1.674-6.142 0-1.675-0.558-3.35-2.234-3.908-1.675-0.558-2.792-1.117-4.466-2.233-3.35-2.233-5.025-5.025-4.467-8.375 0-1.675 0.558-3.908 1.117-5.583 0.558-1.675 1.117-3.35 0-4.467-0.558-1.675-1.675-2.792-2.233-3.908-1.117-1.675-1.675-2.792-2.792-3.908-1.117-2.233-2.233-4.467-3.908-6.141-2.233-2.792-3.908-5.583-6.7-7.817l-0.558-0.558c-1.675-2.233-3.35-4.467-5.583-6.142-1.117-1.117-2.233-2.233-3.35-2.791-0.558-0.558-1.117-1.117-2.233-1.675-1.675-1.117-3.35-1.675-4.467-2.792-1.675-1.675-3.908-2.792-5.583-3.908 0 0-0.558 0-0.558-0.558-2.233-1.117-3.908-1.675-6.142-2.792-2.233-1.117-4.467-1.675-6.7-1.675-0.558 0-0.558 0-1.116 0-0.558-0.558-1.675-0.558-2.233-0.558-0.558 0-0.558 0-1.117 0-1.117-0.558-2.792 0-3.908 0-2.233 0.558-4.467 0.558-6.7-0.558-2.792-1.117-5.025-2.233-7.258-3.35-1.675-1.117-2.792-2.233-4.467-3.35-3.35-2.792-6.7-6.141-10.608-8.933 0.558-2.792-0.558-3.35-2.791-3.35-1.117 0-2.233 0.558-3.35 1.117-0.558 0.558-0.558 0.558-1.117 1.116-1.675 1.117-2.792 2.792-4.466 3.909-2.792 1.675-3.908 1.117-6.142 0-0.558-0.558-1.117-1.117-1.675-1.675-1.117-1.117-2.233-2.792-2.791-3.909-1.117-2.233-3.35-2.233-5.583-2.233-1.117 0-2.792 0.558-3.908 0.558-2.233 0-4.467 1.117-5.584 2.792-1.117 1.675-2.233 3.35-3.908 5.025-0.558 0.558-1.675 1.117-2.233 2.233-1.117 1.117-2.233 1.117-3.35 0-0.558-0.558-1.117-0.558-1.675-1.117-0.558 0.558-1.117 1.117-1.117 1.675-0.558 1.117-1.117 2.233-1.674 3.909-0.558 1.675-1.675 3.35-2.792 4.466-0.558 0.558-0.558 0.558-1.117 1.117-0.558 1.117-2.233 1.675-3.35 1.675-1.117 1.117-2.233 2.792-2.791 3.908-0.558 1.117-1.117 2.233-1.675 3.908-0.558 0.558-0.558 1.675-1.117 2.233-0.558 1.117-0.558 1.675-0.558 2.792 0.558 1.675-0.558 2.233-2.233 2.791-1.117 0-1.117 0-1.675 1.117 0 1.675 0.558 2.792 1.116 4.467 0.558 0.558 1.117 1.675 1.117 2.233 0 1.117 0.558 1.675 1.675 2.233 0.558 0.558 1.117 1.117 1.675 1.117 0.558 0 0.558 0.558 1.117 0.558 0.558 0.558 1.117 0 1.116-0.558 0.558-1.675 1.117-3.35 1.117-5.025 0.558-2.233 0.558-3.908 1.116-6.142 0.558-1.117 1.117-1.675 1.675-2.233 0 0 0.558 0 1.117 0v0.559c-0.558 2.792-1.675 6.141-2.233 8.933-0.558 1.117-0.558 2.233-1.117 3.349 0 0.558-0.558 1.117-1.116 1.117-1.117 0.558-2.233 1.117-3.35 1.117-0.558 0-1.117 0-1.675 0-1.117-0.558-2.233-1.675-3.35-2.234-0.558-0.558-1.117-1.117-1.675-1.674-0.558-1.117-1.117-2.233-1.675-3.35-0.558-1.117-1.117-1.675-2.233-2.234-0.558-0.558-1.117-0.558-1.675-1.116-1.117-1.117-2.233-1.675-3.908-1.675-0.558 0-1.675 0-2.234 0-0.558 0-1.675 0.558-2.233 1.116-1.117 0.558-1.675 0.558-2.791 0-2.792-1.117-5.583-0.558-8.375 0.559-1.117 0.558-2.233 1.117-3.35 1.116-2.792 0-5.025 0-7.816 0-2.792 0-5.025-0.558-7.817-1.116-1.117 0-2.233 0-3.35 0-2.233 0.558-2.792 2.233-2.233 4.466 0.558 2.233 1.117 5.025 1.117 7.258 0 1.675 0 3.35 0 5.025 0 1.117 0 1.675 0 2.792 0 1.675-0.558 3.35-0.559 5.025-0.558 3.35-2.233 6.141-4.466 8.374-1.675 1.675-3.908 3.35-6.142 3.908-1.117 0.558-2.233 1.117-3.908 1.675-2.792 1.117-5.025 3.35-6.7 6.142-0.558 1.117-1.117 2.233-1.674 3.35-1.117 1.675-1.675 2.792-2.792 4.466-0.558 1.117-1.675 2.233-2.233 3.35-0.558 1.117-1.675 1.675-1.675 2.792-1.117 2.233-1.675 4.467-2.792 6.699-0.558 1.117-0.558 2.792-1.116 3.909-1.117 2.233-1.117 4.467-1.117 7.258 0 0.558 0 1.117 0 2.233 0 2.792-0.558 6.141-0.558 8.933 0 2.792 0 5.583 0.558 8.375 0 1.117 0 2.792 0 3.908 0 2.233 0.558 5.025 0.558 7.258 0 2.233 0 5.025 1.117 7.258v0.558c0.558 2.233 0.558 4.467 1.116 6.7 0 0.558 0 1.117 0.559 1.675 1.117 3.35 1.675 6.141 2.791 9.491 0.558 2.233 1.675 4.467 2.234 6.7 0.558 2.233 2.792 4.467 3.349 7.258v0c1.675 3.35 3.35 6.7 5.584 10.05 0.558 1.117 1.675 2.233 2.233 3.35 1.117 1.675 1.675 3.35 2.791 4.466 0.558 1.117 1.675 2.233 2.234 2.792 0.558 1.117 1.117 2.233 2.233 3.35 1.117 1.117 2.233 2.792 3.35 3.908 1.675 2.792 3.908 5.025 6.141 6.7 1.117 1.117 2.233 1.675 3.35 2.791 0.558 0.558 1.117 0.558 1.117 1.117 0.558 0.558 1.117 1.117 2.233 1.675 4.467 2.233 7.816 5.583 11.725 8.933 1.675 1.675 3.35 3.35 5.583 4.466 2.233 1.675 3.908 3.35 6.7 3.908 0 0 0.558 0 0.558 0.559 1.117 1.117 2.792 1.675 3.908 2.233 2.233 1.117 5.025 2.233 7.258 3.35 0.558 0.558 1.675 0.558 2.233 1.117 1.675 0.558 3.35 1.117 5.025 1.674 1.675 0.558 2.792 1.117 4.467 1.117h0.558c1.117 0.558 1.675 0.558 2.792 0 0.558 0 1.117 0 1.116 0.558 0 0.558 0.558 0.558 1.117 0.559 0.558 0 1.117 0 2.233 0 0.558-0.558 0.558-1.117 1.117-2.234 0.558 0.558 1.117 0.558 1.116 0.559 0.558 1.117 1.675 1.117 2.792 1.116h0.558c1.117 0 1.675 0 2.233-0.558 0-0.558 1.117-0.558 1.675-0.558 1.675 0.558 3.35 0.558 5.025 1.116 1.117 0.558 2.792 0.558 3.35-0.558 0.558-0.558 1.117-1.117 2.233-0.558 1.117 0.558 1.675 0.558 2.792 0 0.558 0 1.117 0 1.117 0 1.675 0.558 2.792 0.558 4.466 1.116 2.233 0.558 2.233 0.558 3.908-1.116 0.558-0.558 1.675-0.558 2.233 0 0.558 1.117 0.558 1.675 0.559 2.791 0.558 0 0.558 0 1.116-0.558 0-1.117 0.558-1.117 1.675-1.675 0.558 0.558 0.558 0.558 1.117 0.558 1.117 1.117 1.675 1.117 2.233-0.558 0-0.558 0-1.117 0.559-1.116 0.558 0 1.117 0.558 1.116 0.558 0.558 1.117 1.675 1.675 2.233 2.791 1.117 1.117 2.792 1.117 3.35 0 0.558-0.558 1.117-0.558 1.675-0.558 0-0.558 0-1.117 0-1.675 1.675 1.117 1.117 1.117 0.559 1.117zM89.417 34.559c1.675 0.558 2.792 0.558 3.349-0.558-1.117 0.558-2.233-0.558-3.349 0.558z" fill="#ffffff" fill-rule="nonzero" stroke="none" stroke-width="1" stroke-linecap="butt" stroke-linejoin="miter" stroke-miterlimit="10" stroke-dasharray="" stroke-dashoffset="0" font-family="none" font-weight="none" font-size="none" text-anchor="none" style="mix-blend-mode: normal" data-fill-palette-color="tertiary"></path></g><g transform="matrix(1,0,0,1,112.50376867750887,90)"><svg viewBox="0 0 94.99246264498227 180" height="180" width="94.99246264498227"><g><svg viewBox="0 0 94.99246264498227 180" height="180" width="94.99246264498227"><g><svg viewBox="0 0 113.10939158751697 214.32953645852768" height="180" width="94.99246264498227"><g><svg viewBox="0 0 113.10939158751697 214.32953645852768" height="214.32953645852768" width="113.10939158751697"><g id="textblocktransform"><svg viewBox="0 0 113.10939158751697 214.32953645852768" height="214.32953645852768" width="113.10939158751697" id="textblock"><g><svg viewBox="0 0 113.10939158751697 178.88760000000002" height="178.88760000000002" width="113.10939158751697"><g transform="matrix(1,0,0,1,0,0)"><svg width="113.10939158751697" viewBox="0.20000000298023224 -36.79999923706055 23.299999237060547 36.849998474121094" height="178.88760000000002" data-palette-color="#ffffff"><path d="M6.15-1.2Q4.75-0.95 3.1-0.6 1.45-0.25 0.2 0.05L0.2 0.05Q0.8-2.1 1.38-4.78 1.95-7.45 2.53-10.4 3.1-13.35 3.63-16.38 4.15-19.4 4.65-22.2L4.65-22.2Q5.7-28.85 6.75-35.95L6.75-35.95 23.5-36.8 22.05-30.65 14.2-30.65 12.65-21.75Q14.2-21.8 15.6-21.8L15.6-21.8Q16.75-21.8 17.95-21.8 19.15-21.8 19.8-21.85L19.8-21.85Q19.65-20.45 19.43-19.1 19.2-17.75 19-16.4L19-16.4Q18.35-16.4 17.15-16.43 15.95-16.45 14.68-16.5 13.4-16.55 11.8-16.6L11.8-16.6 9.5-1.85Q7.8-1.55 6.15-1.2L6.15-1.2Z" opacity="1" transform="matrix(1,0,0,1,0,0)" fill="#ffffff" class="wordmark-text-0" data-fill-palette-color="primary" id="text-0"></path></svg></g></svg></g><g transform="matrix(1,0,0,1,0,204.99159414240003)"><svg viewBox="0 0 113.10939158751697 9.337942316127647" height="9.337942316127647" width="113.10939158751697"><g transform="matrix(1,0,0,1,0,0)"><svg width="113.10939158751697" viewBox="1.5099999904632568 -36.040000915527344 445.3699951171875 36.77000045776367" height="9.337942316127647" data-palette-color="#ff0000"><path d="M36.43-30.47Q36.18-30.57 35.23-30.62 34.28-30.66 32.91-30.71 31.54-30.76 29.98-30.79 28.42-30.81 27.03-30.81 25.63-30.81 24.56-30.81 23.49-30.81 23.1-30.81L23.1-30.81Q16.85-30.81 10.55-30.66L10.55-30.66Q10.3-28.22 10.25-25.81 10.21-23.39 10.21-20.9L10.21-20.9 32.37-21.14 32.32-15.92Q32.03-16.02 30.54-16.09 29.05-16.16 27.34-16.19 25.63-16.21 24.07-16.21 22.51-16.21 22.07-16.21L22.07-16.21Q16.16-16.21 10.16-16.06L10.16-16.06Q10.16-13.87 10.13-11.69 10.11-9.52 10.11-7.32L10.11-7.32Q10.11-6.93 10.11-5.81 10.11-4.69 10.16-3.49 10.21-2.29 10.38-1.27 10.55-0.24 10.84 0L10.84 0 2.29 0Q2.59-0.29 2.78-1.88 2.98-3.47 3.1-5.71 3.22-7.96 3.25-10.6 3.27-13.23 3.27-15.63 3.27-18.02 3.25-19.85 3.22-21.68 3.22-22.41L3.22-22.41Q3.22-22.85 3.22-23.93 3.22-25 3.2-26.32 3.17-27.64 3.13-29.13 3.08-30.62 2.95-31.88 2.83-33.15 2.64-34.11 2.44-35.06 2.15-35.4L2.15-35.4Q2-35.55 1.83-35.69 1.66-35.84 1.51-35.99L1.51-35.99 36.96-35.89 36.43-30.47ZM63.87 0.59L54.83 0.59Q55.66 0.34 55.86-0.51 56.05-1.37 56.1-2.05L56.1-2.05Q53.91-1.37 51.66-1.03 49.41-0.68 47.17-0.68L47.17-0.68Q45.7-0.68 43.68-0.93 41.65-1.17 39.82-1.86 37.99-2.54 36.69-3.76 35.4-4.98 35.4-6.98L35.4-6.98Q35.4-8.69 36.65-9.91 37.89-11.13 39.84-11.94 41.8-12.74 44.24-13.18 46.68-13.62 49.02-13.87 51.37-14.11 53.42-14.16 55.47-14.21 56.64-14.26L56.64-14.26Q56.64-14.94 56.67-15.58 56.69-16.21 56.69-16.89L56.69-16.89Q56.69-18.12 56.25-19.02 55.81-19.92 55.05-20.51 54.3-21.09 53.27-21.36 52.25-21.63 51.12-21.63L51.12-21.63Q50.05-21.63 48.8-21.34 47.56-21.04 46.44-20.46 45.31-19.87 44.48-18.97 43.65-18.07 43.46-16.89L43.46-16.89 37.3-17.72Q38.18-19.97 39.75-21.53 41.31-23.1 43.29-24.07 45.26-25.05 47.51-25.51 49.76-25.98 52-25.98L52-25.98Q54.15-25.98 56.18-25.44 58.2-24.9 59.79-23.8 61.38-22.71 62.33-21 63.28-19.29 63.28-16.94L63.28-16.94Q63.28-14.45 63.21-11.99 63.13-9.52 63.13-7.03L63.13-7.03Q63.13-6.59 63.13-5.44 63.13-4.3 63.21-3.05 63.28-1.81 63.43-0.76 63.57 0.29 63.87 0.59L63.87 0.59ZM42.04-6.98L42.04-6.98Q42.04-6.25 42.82-5.86 43.6-5.47 44.65-5.25 45.7-5.03 46.73-4.98 47.75-4.93 48.19-4.93L48.19-4.93Q50.24-4.93 52.34-5.22 54.44-5.52 56.4-6.15L56.4-6.15Q56.45-7.03 56.47-7.91 56.49-8.79 56.49-9.62L56.49-9.62 55.22-9.67Q54.79-9.67 53.64-9.64 52.49-9.62 51.03-9.55 49.56-9.47 47.97-9.3 46.39-9.13 45.07-8.84 43.75-8.54 42.9-8.08 42.04-7.62 42.04-6.98ZM82.32-12.4L82.32-12.4Q84.96-10.11 87.62-7.89 90.28-5.66 92.97-3.42L92.97-3.42Q94.14-2.44 95.36-1.37 96.58-0.29 97.95 0.39L97.95 0.39 89.11 0.39Q88.96 0.15 88.18-0.56 87.4-1.27 86.3-2.15 85.21-3.03 83.94-4.05 82.67-5.08 81.49-6.01 80.32-6.93 79.37-7.64 78.42-8.35 77.98-8.69L77.98-8.69 76.22-7.18Q76.22-6.64 76.22-5.54 76.22-4.44 76.27-3.27 76.32-2.1 76.44-1.07 76.56-0.05 76.76 0.29L76.76 0.29 68.12 0.29Q68.31-0.05 68.51-1.27 68.7-2.49 68.85-4.3 68.99-6.1 69.12-8.33 69.24-10.55 69.36-12.89 69.48-15.23 69.56-17.55 69.63-19.87 69.7-21.85 69.78-23.83 69.8-25.34 69.82-26.86 69.82-27.59L69.82-27.59Q69.82-28.08 69.82-29.32 69.82-30.57 69.73-31.91 69.63-33.25 69.43-34.38 69.24-35.5 68.9-35.74L68.9-35.74 78.22-35.69Q77.83-35.45 77.54-33.98 77.25-32.52 77.03-30.4 76.81-28.27 76.66-25.76 76.51-23.24 76.44-20.95 76.37-18.65 76.32-16.85 76.27-15.04 76.27-14.36L76.27-14.36Q79.15-16.75 82.1-19.09 85.06-21.44 87.79-24.02L87.79-24.02 96.34-24.02Q95.07-23.34 93.97-22.31 92.87-21.29 91.75-20.41L91.75-20.41Q89.36-18.36 87.01-16.41 84.67-14.45 82.32-12.4ZM110.74 0.73L110.74 0.73Q108.35 0.73 105.66 0.1 102.98-0.54 100.71-1.88 98.44-3.22 96.95-5.27 95.46-7.32 95.46-10.16L95.46-10.16Q95.46-13.62 96.83-16.36 98.19-19.09 100.49-20.97 102.78-22.85 105.81-23.85 108.84-24.85 112.16-24.85L112.16-24.85Q114.79-24.85 116.85-24 118.9-23.14 120.26-21.61 121.63-20.07 122.34-17.97 123.05-15.87 123.05-13.33L123.05-13.33Q123.05-10.89 122.31-8.64L122.31-8.64 101.95-8.64Q102.44-7.18 103.49-6.25 104.54-5.32 105.88-4.81 107.23-4.3 108.72-4.1 110.21-3.91 111.52-3.91L111.52-3.91Q112.35-3.91 113.75-4.03 115.14-4.15 116.6-4.42 118.07-4.69 119.36-5.08 120.65-5.47 121.29-6.05L121.29-6.05 123.68-1.86Q120.46-0.63 117.33 0.05 114.21 0.73 110.74 0.73ZM110.74-20.26L110.74-20.26Q109.28-20.26 107.84-19.68 106.4-19.09 105.22-18.14 104.05-17.19 103.17-15.89 102.29-14.6 101.9-13.23L101.9-13.23 115.87-13.23Q116.02-14.7 115.89-15.99 115.77-17.29 115.23-18.24 114.7-19.19 113.62-19.73 112.55-20.26 110.74-20.26ZM164.11-4.74L164.11-4.74Q165.92-4.74 167.97-5.18 170.02-5.62 171.73-6.62 173.44-7.62 174.56-9.16 175.68-10.69 175.68-12.89L175.68-12.89Q175.68-16.41 175.78-19.9 175.88-23.39 175.88-26.9L175.88-26.9Q175.88-27.54 175.88-28.83 175.88-30.13 175.83-31.49 175.78-32.86 175.68-34.08 175.59-35.3 175.39-35.89L175.39-35.89 184.28-35.89Q183.84-35.45 183.62-34.69 183.4-33.94 183.3-33.08 183.2-32.23 183.2-31.42 183.2-30.62 183.2-30.03L183.2-30.03Q183.2-25.73 183.35-21.56 183.5-17.38 183.5-13.09L183.5-13.09Q183.5-10.64 182.62-8.72 181.74-6.79 180.22-5.32 178.71-3.86 176.73-2.81 174.76-1.76 172.58-1.1 170.41-0.44 168.19-0.15 165.97 0.15 163.96 0.15L163.96 0.15Q160.89 0.15 157.54-0.56 154.2-1.27 151.42-2.83 148.63-4.39 146.8-6.91 144.97-9.42 144.97-13.09L144.97-13.09Q144.97-17.38 145.12-21.56 145.26-25.73 145.26-29.98L145.26-29.98Q145.26-30.57 145.26-31.4 145.26-32.23 145.17-33.08 145.07-33.94 144.85-34.69 144.63-35.45 144.19-35.89L144.19-35.89 153.37-35.89Q153.17-35.3 153.08-34.08 152.98-32.86 152.93-31.49 152.88-30.13 152.88-28.83 152.88-27.54 152.88-26.9L152.88-26.9Q152.88-23.39 152.98-19.9 153.08-16.41 153.08-12.89L153.08-12.89Q153.08-10.69 154.1-9.16 155.13-7.62 156.71-6.64 158.3-5.66 160.25-5.2 162.21-4.74 164.11-4.74ZM207.86-14.4Q208.15-15.23 208.35-16.14 208.54-17.04 208.54-17.97L208.54-17.97Q208.54-20.02 207.45-21.02 206.35-22.02 204.3-22.02L204.3-22.02Q203.13-22.02 201.54-21.75 199.95-21.48 198.54-20.85 197.12-20.21 196.12-19.19 195.12-18.16 195.12-16.65L195.12-16.65Q195.12-15.53 196.22-14.77 197.31-14.01 198.78-13.55 200.24-13.09 201.73-12.84 203.22-12.6 204-12.45L204-12.45Q205.22-12.21 207.1-11.84 208.98-11.47 210.74-10.77 212.5-10.06 213.77-9.01 215.04-7.96 215.04-6.35L215.04-6.35Q215.04-4.54 213.62-3.32 212.21-2.1 210.23-1.37 208.25-0.63 206.1-0.32 203.96 0 202.54 0L202.54 0Q199.61 0 196.73-0.42 193.85-0.83 191.06-1.81L191.06-1.81Q190.72-1.95 189.94-2.27 189.16-2.59 188.31-2.95 187.45-3.32 186.72-3.61 185.99-3.91 185.79-3.91L185.79-3.91Q185.89-3.96 186.47-4.49 187.06-5.03 187.72-5.69 188.38-6.35 188.92-6.93 189.45-7.52 189.5-7.67L189.5-7.67Q191.99-5.81 195.04-4.93 198.1-4.05 201.17-4.05L201.17-4.05Q201.51-4.05 202.49-4.13 203.47-4.2 204.52-4.39 205.57-4.59 206.4-4.93 207.23-5.27 207.23-5.81L207.23-5.81Q207.23-6.59 205.86-7.08 204.49-7.57 202.42-8.01 200.34-8.45 197.95-8.98 195.56-9.52 193.48-10.38 191.41-11.23 190.04-12.5 188.67-13.77 188.67-15.77L188.67-15.77Q188.67-18.7 190.26-20.78 191.85-22.85 194.24-24.15 196.63-25.44 199.41-26.03 202.2-26.61 204.64-26.61L204.64-26.61Q206.64-26.61 208.5-26.29 210.35-25.98 211.77-25.15 213.18-24.32 214.04-22.85 214.89-21.39 214.89-19.04L214.89-19.04Q214.89-17.87 214.72-16.7 214.55-15.53 214.31-14.4L214.31-14.4 207.86-14.4ZM233.59 0.73L233.59 0.73Q231.2 0.73 228.52 0.1 225.83-0.54 223.56-1.88 221.29-3.22 219.8-5.27 218.31-7.32 218.31-10.16L218.31-10.16Q218.31-13.62 219.68-16.36 221.04-19.09 223.34-20.97 225.63-22.85 228.66-23.85 231.69-24.85 235.01-24.85L235.01-24.85Q237.65-24.85 239.7-24 241.75-23.14 243.12-21.61 244.48-20.07 245.19-17.97 245.9-15.87 245.9-13.33L245.9-13.33Q245.9-10.89 245.17-8.64L245.17-8.64 224.8-8.64Q225.29-7.18 226.34-6.25 227.39-5.32 228.74-4.81 230.08-4.3 231.57-4.1 233.06-3.91 234.38-3.91L234.38-3.91Q235.21-3.91 236.6-4.03 237.99-4.15 239.45-4.42 240.92-4.69 242.21-5.08 243.51-5.47 244.14-6.05L244.14-6.05 246.53-1.86Q243.31-0.63 240.19 0.05 237.06 0.73 233.59 0.73ZM233.59-20.26L233.59-20.26Q232.13-20.26 230.69-19.68 229.25-19.09 228.08-18.14 226.9-17.19 226.03-15.89 225.15-14.6 224.76-13.23L224.76-13.23 238.72-13.23Q238.87-14.7 238.75-15.99 238.62-17.29 238.09-18.24 237.55-19.19 236.47-19.73 235.4-20.26 233.59-20.26ZM257.76-18.55L257.76-18.55Q258.94-19.53 260.47-20.41 262.01-21.29 263.7-21.95 265.38-22.61 267.11-23 268.85-23.39 270.36-23.39L270.36-23.39 270.36-19.19Q268.8-19.19 266.89-18.51 264.99-17.82 263.16-16.75 261.33-15.67 259.86-14.31 258.4-12.94 257.71-11.52L257.71-11.52Q257.71-11.18 257.74-10.25 257.76-9.33 257.79-8.11 257.81-6.88 257.86-5.54 257.91-4.2 258.01-3.03 258.11-1.86 258.2-1.03 258.3-0.2 258.45 0L258.45 0 250.54 0Q250.73-0.1 250.88-1.05 251.03-2 251.1-3.37 251.17-4.74 251.25-6.32 251.32-7.91 251.34-9.38 251.37-10.84 251.37-11.91 251.37-12.99 251.37-13.33L251.37-13.33Q251.37-13.77 251.37-15.19 251.37-16.6 251.32-18.16 251.27-19.73 251.17-21.07 251.07-22.41 250.88-22.71L250.88-22.71 258.11-22.71Q258.01-22.41 257.96-21.85 257.91-21.29 257.86-20.65 257.81-20.02 257.79-19.43 257.76-18.85 257.76-18.55ZM291.7-14.4Q291.99-15.23 292.19-16.14 292.38-17.04 292.38-17.97L292.38-17.97Q292.38-20.02 291.28-21.02 290.19-22.02 288.13-22.02L288.13-22.02Q286.96-22.02 285.38-21.75 283.79-21.48 282.37-20.85 280.96-20.21 279.96-19.19 278.96-18.16 278.96-16.65L278.96-16.65Q278.96-15.53 280.05-14.77 281.15-14.01 282.62-13.55 284.08-13.09 285.57-12.84 287.06-12.6 287.84-12.45L287.84-12.45Q289.06-12.21 290.94-11.84 292.82-11.47 294.58-10.77 296.34-10.06 297.61-9.01 298.88-7.96 298.88-6.35L298.88-6.35Q298.88-4.54 297.46-3.32 296.04-2.1 294.07-1.37 292.09-0.63 289.94-0.32 287.79 0 286.38 0L286.38 0Q283.45 0 280.57-0.42 277.69-0.83 274.9-1.81L274.9-1.81Q274.56-1.95 273.78-2.27 273-2.59 272.14-2.95 271.29-3.32 270.56-3.61 269.82-3.91 269.63-3.91L269.63-3.91Q269.73-3.96 270.31-4.49 270.9-5.03 271.56-5.69 272.22-6.35 272.75-6.93 273.29-7.52 273.34-7.67L273.34-7.67Q275.83-5.81 278.88-4.93 281.93-4.05 285.01-4.05L285.01-4.05Q285.35-4.05 286.33-4.13 287.3-4.2 288.35-4.39 289.4-4.59 290.23-4.93 291.06-5.27 291.06-5.81L291.06-5.81Q291.06-6.59 289.7-7.08 288.33-7.57 286.25-8.01 284.18-8.45 281.79-8.98 279.39-9.52 277.32-10.38 275.24-11.23 273.88-12.5 272.51-13.77 272.51-15.77L272.51-15.77Q272.51-18.7 274.1-20.78 275.68-22.85 278.08-24.15 280.47-25.44 283.25-26.03 286.04-26.61 288.48-26.61L288.48-26.61Q290.48-26.61 292.33-26.29 294.19-25.98 295.61-25.15 297.02-24.32 297.88-22.85 298.73-21.39 298.73-19.04L298.73-19.04Q298.73-17.87 298.56-16.7 298.39-15.53 298.14-14.4L298.14-14.4 291.7-14.4ZM319.87-36.04L329.39-35.99Q332.28-35.99 335.84-35.57 339.4-35.16 343.02-34.25 346.63-33.35 350.05-31.84 353.47-30.32 356.1-28.15 358.74-25.98 360.35-23.05 361.96-20.12 361.96-16.36L361.96-16.36Q361.96-12.26 360.13-9.45 358.3-6.64 355.3-4.83 352.29-3.03 348.49-2.03 344.68-1.03 340.72-0.59 336.77-0.15 333.06-0.07 329.35 0 326.51 0L326.51 0 320.65 0Q320.8-0.29 320.9-1.46 321-2.64 321.07-4.27 321.14-5.91 321.19-7.81 321.24-9.72 321.26-11.4 321.29-13.09 321.29-14.38 321.29-15.67 321.29-16.16L321.29-16.16Q321.29-16.7 321.29-18.33 321.29-19.97 321.24-22.09 321.19-24.22 321.12-26.61 321.04-29 320.87-31.03 320.7-33.06 320.46-34.45 320.21-35.84 319.87-36.04L319.87-36.04ZM328.66-4.35L328.66-4.35Q329.3-4.35 329.93-4.32 330.57-4.3 331.2-4.3L331.2-4.3Q333.06-4.3 335.52-4.44 337.99-4.59 340.63-5.03 343.26-5.47 345.8-6.25 348.34-7.03 350.34-8.35 352.34-9.67 353.59-11.55 354.83-13.43 354.83-16.02L354.83-16.02Q354.83-18.85 353.74-21.09 352.64-23.34 350.81-25.07 348.97-26.81 346.56-28 344.14-29.2 341.53-29.98 338.92-30.76 336.28-31.1 333.64-31.45 331.35-31.45L331.35-31.45Q330.71-31.45 330.08-31.42 329.44-31.4 328.81-31.35L328.81-31.35Q328.56-27.39 328.52-23.49 328.47-19.58 328.47-15.63L328.47-15.63Q328.47-12.79 328.49-9.99 328.52-7.18 328.66-4.35ZM392.68 0.59L383.64 0.59Q384.47 0.34 384.67-0.51 384.86-1.37 384.91-2.05L384.91-2.05Q382.71-1.37 380.47-1.03 378.22-0.68 375.98-0.68L375.98-0.68Q374.51-0.68 372.49-0.93 370.46-1.17 368.63-1.86 366.8-2.54 365.5-3.76 364.21-4.98 364.21-6.98L364.21-6.98Q364.21-8.69 365.45-9.91 366.7-11.13 368.65-11.94 370.61-12.74 373.05-13.18 375.49-13.62 377.83-13.87 380.18-14.11 382.23-14.16 384.28-14.21 385.45-14.26L385.45-14.26Q385.45-14.94 385.47-15.58 385.5-16.21 385.5-16.89L385.5-16.89Q385.5-18.12 385.06-19.02 384.62-19.92 383.86-20.51 383.11-21.09 382.08-21.36 381.05-21.63 379.93-21.63L379.93-21.63Q378.86-21.63 377.61-21.34 376.37-21.04 375.24-20.46 374.12-19.87 373.29-18.97 372.46-18.07 372.27-16.89L372.27-16.89 366.11-17.72Q366.99-19.97 368.55-21.53 370.12-23.1 372.09-24.07 374.07-25.05 376.32-25.51 378.56-25.98 380.81-25.98L380.81-25.98Q382.96-25.98 384.99-25.44 387.01-24.9 388.6-23.8 390.19-22.71 391.14-21 392.09-19.29 392.09-16.94L392.09-16.94Q392.09-14.45 392.02-11.99 391.94-9.52 391.94-7.03L391.94-7.03Q391.94-6.59 391.94-5.44 391.94-4.3 392.02-3.05 392.09-1.81 392.24-0.76 392.38 0.29 392.68 0.59L392.68 0.59ZM370.85-6.98L370.85-6.98Q370.85-6.25 371.63-5.86 372.41-5.47 373.46-5.25 374.51-5.03 375.54-4.98 376.56-4.93 377-4.93L377-4.93Q379.05-4.93 381.15-5.22 383.25-5.52 385.21-6.15L385.21-6.15Q385.25-7.03 385.28-7.91 385.3-8.79 385.3-9.62L385.3-9.62 384.03-9.67Q383.59-9.67 382.45-9.64 381.3-9.62 379.83-9.55 378.37-9.47 376.78-9.3 375.2-9.13 373.88-8.84 372.56-8.54 371.7-8.08 370.85-7.62 370.85-6.98ZM408.4-17.63Q408.3-15.14 408.2-12.62 408.11-10.11 408.11-7.62L408.11-7.62Q408.11-6.79 408.45-6.2 408.79-5.62 409.35-5.25 409.91-4.88 410.62-4.74 411.33-4.59 412.06-4.59L412.06-4.59Q412.99-4.59 413.89-4.74 414.79-4.88 415.67-5.13L415.67-5.13 414.89 0.1Q412.06 0.1 409.57-0.07 407.08-0.24 405.22-1.12 403.37-2 402.29-3.93 401.22-5.86 401.22-9.38L401.22-9.38Q401.22-11.43 401.34-13.5 401.46-15.58 401.66-17.63L401.66-17.63 394.43-17.58 394.78-22.36Q396.53-22.22 398.34-22.19 400.15-22.17 401.95-22.17L401.95-22.17Q402.05-23.58 402.1-24.93 402.15-26.27 402.15-27.69L402.15-27.69Q402.15-27.98 402.15-28.86 402.15-29.74 402.05-30.69 401.95-31.64 401.76-32.42 401.56-33.2 401.22-33.35L401.22-33.35 410.21-33.2Q410.01-33.2 409.91-32.91 409.81-32.62 409.72-32.47L409.72-32.47Q409.42-31.54 409.25-30.22 409.08-28.91 408.96-27.47 408.84-26.03 408.76-24.68 408.69-23.34 408.64-22.31L408.64-22.31Q410.3-22.41 412.01-22.49 413.72-22.56 415.38-22.95L415.38-22.95 415.38-17.68 408.4-17.63ZM446.88 0.59L437.84 0.59Q438.67 0.34 438.87-0.51 439.06-1.37 439.11-2.05L439.11-2.05Q436.91-1.37 434.67-1.03 432.42-0.68 430.18-0.68L430.18-0.68Q428.71-0.68 426.68-0.93 424.66-1.17 422.83-1.86 421-2.54 419.7-3.76 418.41-4.98 418.41-6.98L418.41-6.98Q418.41-8.69 419.65-9.91 420.9-11.13 422.85-11.94 424.8-12.74 427.25-13.18 429.69-13.62 432.03-13.87 434.38-14.11 436.43-14.16 438.48-14.21 439.65-14.26L439.65-14.26Q439.65-14.94 439.67-15.58 439.7-16.21 439.7-16.89L439.7-16.89Q439.7-18.12 439.26-19.02 438.82-19.92 438.06-20.51 437.3-21.09 436.28-21.36 435.25-21.63 434.13-21.63L434.13-21.63Q433.06-21.63 431.81-21.34 430.57-21.04 429.44-20.46 428.32-19.87 427.49-18.97 426.66-18.07 426.46-16.89L426.46-16.89 420.31-17.72Q421.19-19.97 422.75-21.53 424.32-23.1 426.29-24.07 428.27-25.05 430.52-25.51 432.76-25.98 435.01-25.98L435.01-25.98Q437.16-25.98 439.18-25.44 441.21-24.9 442.8-23.8 444.38-22.71 445.34-21 446.29-19.29 446.29-16.94L446.29-16.94Q446.29-14.45 446.22-11.99 446.14-9.52 446.14-7.03L446.14-7.03Q446.14-6.59 446.14-5.44 446.14-4.3 446.22-3.05 446.29-1.81 446.44-0.76 446.58 0.29 446.88 0.59L446.88 0.59ZM425.05-6.98L425.05-6.98Q425.05-6.25 425.83-5.86 426.61-5.47 427.66-5.25 428.71-5.03 429.74-4.98 430.76-4.93 431.2-4.93L431.2-4.93Q433.25-4.93 435.35-5.22 437.45-5.52 439.4-6.15L439.4-6.15Q439.45-7.03 439.48-7.91 439.5-8.79 439.5-9.62L439.5-9.62 438.23-9.67Q437.79-9.67 436.65-9.64 435.5-9.62 434.03-9.55 432.57-9.47 430.98-9.3 429.39-9.13 428.08-8.84 426.76-8.54 425.9-8.08 425.05-7.62 425.05-6.98Z" opacity="1" transform="matrix(1,0,0,1,0,0)" fill="#ff0000" class="slogan-text-1" data-fill-palette-color="secondary" id="text-1"></path></svg></g></svg></g></svg></g></svg></g><g></g></svg></g></svg></g></svg></g></svg></g><defs></defs></svg><rect width="320" height="360" fill="none" stroke="none" visibility="hidden"></rect></g></svg></g></svg>